curl
version=1
nRows=145
nColumns=3
inDegrees=yes
endheader
time	r_shoulder_elev	r_elbow_flex
4.6100	28.591269	74.007535
4.6200	28.741780	75.949981
4.6300	28.887980	77.852595
4.6400	29.029150	79.713590
4.6500	29.164633	81.531677
4.6600	29.293835	83.306037
4.6700	29.416238	85.036291
4.6800	29.531396	86.722466
4.6900	29.638946	88.364949
4.7000	29.738607	89.964439
4.7100	29.830178	91.521896
4.7200	29.913542	93.038485
4.7300	29.988662	94.515527
4.7400	30.055573	95.954441
4.7500	30.114387	97.356696
4.7600	30.165279	98.723762
4.7700	30.208485	100.057064
4.7800	30.244295	101.357942
4.7900	30.273045	102.627618
4.8000	30.295111	103.867161
4.8100	30.310902	105.077467
4.8200	30.320850	106.259234
4.8300	30.325407	107.412952
4.8400	30.325034	108.538888
4.8500	30.320200	109.637088
4.8600	30.311370	110.707370
4.8700	30.299006	111.749333
4.8800	30.283557	112.762362
4.8900	30.265458	113.745644
4.9000	30.245127	114.698176
4.9100	30.222956	115.618793
4.9200	30.199317	116.506181
4.9300	30.174551	117.358904
4.9400	30.148975	118.175425
4.9500	30.122873	118.954136
4.9600	30.096499	119.693382
4.9700	30.070076	120.391485
4.9800	30.043795	121.046773
4.9900	30.017815	121.657603
5.0000	29.992265	122.222382
5.0100	29.967241	122.739594
5.0200	29.942814	123.207814
5.0300	29.919022	123.625730
5.0400	29.895882	123.992155
5.0500	29.873384	124.306046
5.0600	29.851498	124.566509
5.0700	29.830176	124.772812
5.0800	29.809355	124.924392
5.0900	29.788958	125.020860
5.1000	29.768901	125.062003
5.1100	29.749096	125.047786
5.1200	29.729453	124.978354
5.1300	29.709884	124.854028
5.1400	29.690310	124.675298
5.1500	29.670659	124.442825
5.1600	29.650875	124.157428
5.1700	29.630918	123.820076
5.1800	29.610765	123.431879
5.1900	29.590419	122.994075
5.2000	29.569903	122.508019
5.2100	29.549264	121.975162
5.2200	29.528577	121.397044
5.2300	29.507938	120.775266
5.2400	29.487467	120.111482
5.2500	29.467307	119.407371
5.2600	29.447617	118.664625
5.2700	29.428572	117.884921
5.2800	29.410357	117.069904
5.2900	29.393164	116.221162
5.3000	29.377182	115.340208
5.3100	29.362598	114.428456
5.3200	29.349585	113.487196
5.3300	29.338298	112.517581
5.3400	29.328870	111.520599
5.3500	29.321402	110.497062
5.3600	29.315961	109.447585
5.3700	29.312577	108.372575
5.3800	29.311233	107.272220
5.3900	29.311870	106.146481
5.4000	29.314377	104.995086
5.4100	29.318599	103.817532
5.4200	29.324328	102.613086
5.4300	29.331312	101.380795
5.4400	29.339253	100.119500
5.4500	29.347813	98.827852
5.4600	29.356617	97.504336
5.4700	29.365260	96.147306
5.4800	29.373311	94.755014
5.4900	29.380320	93.325656
5.5000	29.385829	91.857416
5.5100	29.389374	90.348516
5.5200	29.390496	88.797275
5.5300	29.388746	87.202156
5.5400	29.383697	85.561834
5.5500	29.374946	83.875248
5.5600	29.362122	82.141660
5.5700	29.344897	80.360709
5.5800	29.322983	78.532463
5.5900	29.296147	76.657460
5.6000	29.264209	74.736748
5.6100	29.227047	72.771915
5.6200	29.184606	70.765108
5.6300	29.136891	68.719047
5.6400	29.083979	66.637024
5.6500	29.026015	64.522890
5.6600	28.963211	62.381040
5.6700	28.895851	60.216377
5.6800	28.824286	58.034271
5.6900	28.748933	55.840507
5.7000	28.670274	53.641224
5.7100	28.588849	51.442847
5.7200	28.505253	49.252012
5.7300	28.420133	47.075487
5.7400	28.334178	44.920087
5.7500	28.248114	42.792595
5.7600	28.162697	40.699672
5.7700	28.078701	38.647785
5.7800	27.996914	36.643123
5.7900	27.918127	34.691530
5.8000	27.843121	32.798438
5.8100	27.772663	30.968815
5.8200	27.707489	29.207110
5.8300	27.648301	27.517219
5.8400	27.595752	25.902454
5.8500	27.550439	24.365521
5.8600	27.512891	22.908507
5.8700	27.483565	21.532881
5.8800	27.462834	20.239496
5.8900	27.450984	19.028600
5.9000	27.448203	17.899861
5.9100	27.454582	16.852391
5.9200	27.470109	15.884778
5.9300	27.494666	14.995124
5.9400	27.528029	14.181086
5.9500	27.569871	13.439921
5.9600	27.619758	12.768535
5.9700	27.677162	12.163529
5.9800	27.741456	11.621252
5.9900	27.811929	11.137851
6.0000	27.887787	10.709327
6.0100	27.968166	10.331578
6.0200	28.052141	10.000456
6.0300	28.138737	9.711815
6.0400	28.226940	9.461557
6.0500	28.315710	9.245678
